<?xml version="1.0" encoding="UTF-8" standalone="no"?>
<!-- Generator: Adobe Illustrator 21.1.0, SVG Export Plug-In . SVG Version: 6.00 Build 0)  -->

<svg
   version="1.1"
   id="OSS_x5F_Review_x5F_Toolkit"
   x="0px"
   y="0px"
   viewBox="0 0 273.70001 197.90001"
   xml:space="preserve"
   width="273.70001"
   height="197.90001"
   xmlns="http://www.w3.org/2000/svg"
   xmlns:svg="http://www.w3.org/2000/svg">&#10;<style
   type="text/css"
   id="style1">&#10;	.st0{fill:#FFFFFF;stroke:#FFFFFF;stroke-width:0.8;stroke-miterlimit:10;}&#10;	.st1{fill:#FFFFFF;stroke:#FFFFFF;stroke-width:0.4;stroke-miterlimit:10;}&#10;	.st2{fill:#FFFFFF;stroke:#FFFFFF;stroke-width:1.5;stroke-miterlimit:10;}&#10;	.st3{filter:url(#Adobe_OpacityMaskFilter);}&#10;	.st4{fill:url(#SVGID_2_);}&#10;	.st5{mask:url(#SVGID_1_);}&#10;	.st6{fill:#D14E60;}&#10;	.st7{fill:#FFFFFF;}&#10;	.st8{fill:#C41C33;}&#10;	.st9{fill:#D4596A;}&#10;	.st10{fill:#E18D99;}&#10;	.st11{fill:#E3949F;}&#10;	.st12{filter:url(#Adobe_OpacityMaskFilter_1_);}&#10;	.st13{fill:url(#SVGID_4_);stroke:#FFFFFF;stroke-width:0.4;stroke-miterlimit:10;}&#10;	.st14{mask:url(#SVGID_3_);}&#10;	.st15{fill:#B6A0CB;}&#10;	.st16{fill:#997BB7;}&#10;	.st17{fill:#B39CC9;}&#10;	.st18{fill:#9575B3;}&#10;	.st19{fill:#673A93;}&#10;	.st20{fill:#AE97C6;}&#10;	.st21{filter:url(#Adobe_OpacityMaskFilter_2_);}&#10;	.st22{fill:url(#SVGID_6_);stroke:#FFFFFF;stroke-width:0.4;stroke-miterlimit:10;}&#10;	.st23{mask:url(#SVGID_5_);}&#10;	.st24{fill:#66CFCC;}&#10;	.st25{fill:#80D7D4;}&#10;	.st26{fill:#1FB9B4;}&#10;	.st27{fill:#99DFDD;}&#10;	.st28{fill:#00AFAA;}&#10;	.st29{fill:#B2E7E5;}&#10;	.st30{fill:#85D9D6;}&#10;	.st31{filter:url(#Adobe_OpacityMaskFilter_3_);}&#10;	.st32{fill:url(#SVGID_8_);stroke:#FFFFFF;stroke-width:0.4086;stroke-miterlimit:10;}&#10;	.st33{mask:url(#SVGID_7_);}&#10;	.st34{fill:#ECBED6;}&#10;	.st35{fill:#D878AA;}&#10;	.st36{fill:#C53580;}&#10;	.st37{fill:#D56EA4;}&#10;	.st38{fill:#CB498D;}&#10;	.st39{fill:#DF90B9;}&#10;	.st40{fill:#F0CADE;}&#10;	.st41{filter:url(#Adobe_OpacityMaskFilter_4_);}&#10;	.st42{fill:url(#SVGID_10_);stroke:#FFFFFF;stroke-width:0.4;stroke-miterlimit:10;}&#10;	.st43{mask:url(#SVGID_9_);}&#10;	.st44{fill:#F39862;}&#10;	.st45{fill:#F0813E;}&#10;	.st46{fill:#EC610E;}&#10;	.st47{fill:#F7BB97;}&#10;	.st48{fill:#F29056;}&#10;	.st49{fill:#F9CCB2;}&#10;	.st50{filter:url(#Adobe_OpacityMaskFilter_5_);}&#10;	.st51{fill:url(#SVGID_12_);stroke:#FFFFFF;stroke-width:0.4081;stroke-miterlimit:10;}&#10;	.st52{mask:url(#SVGID_11_);}&#10;	.st53{fill:#B1D6EF;}&#10;	.st54{fill:#8FC3E8;}&#10;	.st55{fill:#86BFE6;}&#10;	.st56{fill:#A8D1ED;}&#10;	.st57{fill:#52A3DB;}&#10;	.st58{fill:#7DBAE4;}&#10;	.st59{filter:url(#Adobe_OpacityMaskFilter_6_);}&#10;	.st60{fill:url(#SVGID_14_);stroke:#FFFFFF;stroke-width:0.4133;stroke-miterlimit:10;}&#10;	.st61{mask:url(#SVGID_13_);}&#10;	.st62{fill:#FAB800;}&#10;	.st63{fill:#FCD466;}&#10;	.st64{fill:#FBCA40;}&#10;	.st65{fill:#FBC838;}&#10;	.st66{fill:#FCD873;}&#10;	.st67{filter:url(#Adobe_OpacityMaskFilter_7_);}&#10;	.st68{fill:url(#SVGID_16_);}&#10;	.st69{mask:url(#SVGID_15_);}&#10;	.st70{filter:url(#Adobe_OpacityMaskFilter_8_);}&#10;	.st71{fill:url(#SVGID_18_);stroke:#FFFFFF;stroke-width:0.3102;stroke-miterlimit:10;}&#10;	.st72{mask:url(#SVGID_17_);}&#10;	.st73{filter:url(#Adobe_OpacityMaskFilter_9_);}&#10;	.st74{fill:url(#SVGID_20_);stroke:#FFFFFF;stroke-width:0.3102;stroke-miterlimit:10;}&#10;	.st75{mask:url(#SVGID_19_);}&#10;	.st76{filter:url(#Adobe_OpacityMaskFilter_10_);}&#10;	.st77{fill:url(#SVGID_22_);stroke:#FFFFFF;stroke-width:0.3168;stroke-miterlimit:10;}&#10;	.st78{mask:url(#SVGID_21_);}&#10;	.st79{filter:url(#Adobe_OpacityMaskFilter_11_);}&#10;	.st80{fill:url(#SVGID_24_);stroke:#FFFFFF;stroke-width:0.3102;stroke-miterlimit:10;}&#10;	.st81{mask:url(#SVGID_23_);}&#10;	.st82{filter:url(#Adobe_OpacityMaskFilter_12_);}&#10;	.st83{fill:url(#SVGID_26_);stroke:#FFFFFF;stroke-width:0.3165;stroke-miterlimit:10;}&#10;	.st84{mask:url(#SVGID_25_);}&#10;	.st85{filter:url(#Adobe_OpacityMaskFilter_13_);}&#10;	.st86{fill:url(#SVGID_28_);stroke:#FFFFFF;stroke-width:0.3205;stroke-miterlimit:10;}&#10;	.st87{mask:url(#SVGID_27_);}&#10;	.st88{filter:url(#Adobe_OpacityMaskFilter_14_);}&#10;	.st89{fill:url(#SVGID_30_);}&#10;	.st90{opacity:0.4;fill:url(#SVGID_31_);}&#10;	.st91{opacity:0.9;fill:url(#SVGID_32_);}&#10;	.st92{mask:url(#SVGID_29_);}&#10;	.st93{fill:#59CBC8;}&#10;	.st94{opacity:0.5;}&#10;	.st95{fill:#383C45;}&#10;</style>&#10;<path
   class="st1"
   d="m 131,68.7 91.3,38.1 -38.1,91.3 L 157.7,133.4 93,160 77.2,197.9 39.5,106.4 Z M 73.1,69.8 69.9,0 36.6,36.5 v 0 L 0,3.1 3.1,73 39.5,106.4 Z m 160.4,-32.1 -11.2,69.1 40.1,-29 11.2,-69.1 z"
   id="path1" />&#10;<defs
   id="defs1">&#10;	<filter
   id="Adobe_OpacityMaskFilter"
   filterUnits="userSpaceOnUse"
   x="2.8"
   y="1.6"
   width="273.60001"
   height="198.2">&#10;		<feColorMatrix
   type="matrix"
   values="1 0 0 0 0  0 1 0 0 0  0 0 1 0 0  0 0 0 1 0"
   id="feColorMatrix1" />&#10;	</filter>&#10;</defs>&#10;<mask
   maskUnits="userSpaceOnUse"
   x="2.8"
   y="1.6"
   width="273.6"
   height="198.2"
   id="SVGID_1_">&#10;	<g
   class="st3"
   id="g8">&#10;		<linearGradient
   id="SVGID_2_"
   gradientUnits="userSpaceOnUse"
   x1="232.3363"
   y1="3.0129001"
   x2="38.1283"
   y2="201.6347">&#10;			<stop
   offset="0"
   style="stop-color:#FFFFFF"
   id="stop1" />&#10;			<stop
   offset="0.1082"
   style="stop-color:#F9F9F9"
   id="stop2" />&#10;			<stop
   offset="0.2516"
   style="stop-color:#E8E8E8"
   id="stop3" />&#10;			<stop
   offset="0.4148"
   style="stop-color:#CDCDCD"
   id="stop4" />&#10;			<stop
   offset="0.5927"
   style="stop-color:#A6A6A6"
   id="stop5" />&#10;			<stop
   offset="0.7824"
   style="stop-color:#757575"
   id="stop6" />&#10;			<stop
   offset="0.9792"
   style="stop-color:#3A3A3A"
   id="stop7" />&#10;			<stop
   offset="1"
   style="stop-color:#333333"
   id="stop8" />&#10;		</linearGradient>&#10;		<rect
   x="2.3"
   y="-6.0999999"
   class="st4"
   width="277"
   height="205.60001"
   id="rect8" />&#10;	</g>&#10;</mask>&#10;<g
   class="st5"
   mask="url(#SVGID_1_)"
   id="g16"
   transform="translate(-2.8,-1.6)">&#10;	<g
   id="g9">&#10;		<polygon
   class="st6"
   points="80,199.2 42.5,108 133.6,70.5 "
   id="polygon8" />&#10;		<path
   class="st7"
   d="M 133.5,70.7 80,199 42.6,108.1 133.5,70.7 M 133.8,70.3 42.3,108 80,199.5 Z"
   id="path8" />&#10;	</g>&#10;	<g
   id="g10">&#10;		<polygon
   class="st8"
   points="187.1,199.4 134,70.5 225,108.4 "
   id="polygon9" />&#10;		<path
   class="st7"
   d="m 134.2,70.7 90.7,37.8 -37.8,90.7 -52.9,-128.5 m -0.4,-0.4 53.3,129.4 38.1,-91.3 z"
   id="path9" />&#10;	</g>&#10;	<g
   id="g11">&#10;		<polygon
   class="st9"
   points="75.8,71.2 39.5,38.1 72.6,1.8 "
   id="polygon10" />&#10;		<path
   class="st7"
   d="M 72.5,2 75.7,71 39.6,38.1 72.5,2 M 72.7,1.6 39.3,38.1 75.9,71.4 Z"
   id="path10" />&#10;	</g>&#10;	<g
   id="g12">&#10;		<polygon
   class="st10"
   points="75.7,71.5 42.3,107.9 6.1,74.6 39.3,38.2 "
   id="polygon11" />&#10;		<path
   class="st7"
   d="M 39.4,38.4 75.6,71.5 42.4,107.7 6.2,74.6 39.4,38.4 M 39.3,38.1 5.9,74.6 42.3,108 75.8,71.5 Z"
   id="path11" />&#10;	</g>&#10;	<g
   id="g13">&#10;		<polygon
   class="st8"
   points="6,74.3 2.9,4.9 39.2,38.1 "
   id="polygon12" />&#10;		<path
   class="st7"
   d="M 3.1,5.2 39.1,38.1 6.2,74.1 3.1,5.2 M 2.8,4.7 5.9,74.6 39.3,38.1 Z"
   id="path12" />&#10;	</g>&#10;	<g
   id="g14">&#10;		<polygon
   class="st11"
   points="265.2,79.4 225.3,108.1 236.4,39.3 276.3,10.6 "
   id="polygon13" />&#10;		<path
   class="st7"
   d="m 276.2,10.8 -11.1,68.5 -39.7,28.6 11.1,-68.5 39.7,-28.6 m 0.3,-0.5 -40.1,29 -11.2,69.1 40.1,-29 z"
   id="path13" />&#10;	</g>&#10;	<g
   id="g15">&#10;		<polygon
   class="st10"
   points="96,161.5 133.8,70.6 160.3,135 "
   id="polygon14" />&#10;		<path
   class="st7"
   d="m 133.8,70.8 26.4,64.1 -64.1,26.4 37.7,-90.5 m 0,-0.5 -38.1,91.3 64.7,-26.6 z"
   id="path14" />&#10;	</g>&#10;</g>&#10;&#10;</svg>
